<svg xmlns="http://www.w3.org/2000/svg" width="1024" height="1024" viewBox="0 0 1024 1024"><path fill="#FFFFFF" d="M502 589C549 636 624 636 671 589L774 486C821 439 821 364 774 317C727 270 652 270 605 317L547 375C533 389 533 412 547 426C561 440 584 440 598 426L656 368C675 349 705 349 724 368C743 387 743 417 724 436L621 539C602 558 572 558 553 539C539 525 516 525 502 539C488 553 488 575 502 589Z"/><path fill="#FFFFFF" d="M437 536L585 388C600 373 623 373 637 388C652 402 652 425 637 440L489 588C474 603 451 603 437 588C422 574 422 551 437 536Z"/></svg>
